<svg width="147" height="50" viewBox="0 0 147 50" fill="none" xmlns="http://www.w3.org/2000/svg">
<g clip-path="url(#clip0_527_4032)">
<path d="M41.4284 15.8819L48.6109 23.5842C49.2241 24.2417 49.5127 25.0856 49.4836 25.9184C49.4545 26.7511 49.1077 27.5728 48.4501 28.186L25.3328 49.7433C24.6752 50.3565 23.8313 50.6451 22.9985 50.6161C22.1658 50.587 21.3441 50.2403 20.7309 49.5827L13.5484 41.8804L41.4284 15.8819ZM43.8985 22.8824L39.3499 27.124C39.1504 27.3101 39.0452 27.5593 39.0364 27.812C39.0276 28.0646 39.1151 28.3206 39.3011 28.5201L41.3969 30.7675C41.5829 30.967 41.8322 31.0722 42.0848 31.081C42.3375 31.0898 42.5935 31.0023 42.793 30.8163L47.3415 26.5747C47.541 26.3886 47.6462 26.1394 47.655 25.8867C47.6639 25.6341 47.5763 25.3781 47.3903 25.1786L45.2945 22.9312C45.1085 22.7317 44.8592 22.6265 44.6066 22.6177C44.354 22.6088 44.098 22.6964 43.8985 22.8824ZM31.3346 9.83187C31.9922 9.21866 32.8361 8.93004 33.6688 8.95911C34.5016 8.98817 35.3233 9.33493 35.9364 9.99248L38.6839 12.9388L10.8039 38.9373L8.05646 35.991C7.44328 35.3335 7.15472 34.4896 7.18381 33.6568C7.21291 32.824 7.55969 32.0024 8.21727 31.3892L31.3346 9.83187Z" fill="#ED4948"/>
<path d="M6.238 14.7326L13.3985 22.4114L5.77155 29.5237C5.01736 30.227 4.62342 31.1719 4.59782 32.1273L-1.09488 26.0226C-1.70806 25.365 -1.99666 24.5212 -1.96756 23.6884C-1.93847 22.8557 -1.59171 22.034 -0.934135 21.4208L6.238 14.7326ZM11.6948 9.64412C12.3523 9.03092 13.1962 8.74233 14.029 8.77139C14.8618 8.80046 15.6834 9.14722 16.2966 9.80477L21.2366 15.1023L16.1905 19.8078L9.02995 12.1291L11.6948 9.64412Z" fill="#1B6DC1"/>
<path d="M74.3748 8.34729V22.3997H72.0698V12.7753L67.7833 22.3997H66.1859L61.8792 12.7753V22.3997H59.5742V8.34729H62.0612L66.9947 19.3668L71.908 8.34729H74.3748Z" fill="black"/>
<path d="M87.051 11.2589L80.2169 27.6366H77.831L80.0956 22.2178L75.708 11.2589H78.2759L81.4099 19.751L84.6652 11.2589H87.051Z" fill="black"/>
<path d="M87.6367 15.3432C87.6367 13.9683 87.9569 12.7349 88.5971 11.6431C89.2374 10.5512 90.1068 9.69864 91.2054 9.08532C92.304 8.472 93.5071 8.16534 94.8146 8.16534C96.3108 8.16534 97.6419 8.53266 98.8079 9.2673C99.9739 10.0019 100.82 11.0432 101.345 12.3912H98.5754C98.2114 11.6498 97.7059 11.0971 97.0589 10.7332C96.4119 10.3693 95.6638 10.1873 94.8146 10.1873C93.8845 10.1873 93.0555 10.3962 92.3276 10.8141C91.5997 11.2319 91.0302 11.8318 90.6191 12.6136C90.2079 13.3954 90.0024 14.3053 90.0024 15.3432C90.0024 16.3811 90.2079 17.291 90.6191 18.0728C91.0302 18.8546 91.5997 19.4578 92.3276 19.8824C93.0555 20.3071 93.8845 20.5194 94.8146 20.5194C95.6638 20.5194 96.4119 20.3374 97.0589 19.9734C97.7059 19.6095 98.2114 19.0568 98.5754 18.3155H101.345C100.82 19.6634 99.9739 20.7013 98.8079 21.4292C97.6419 22.1571 96.3108 22.5211 94.8146 22.5211C93.4936 22.5211 92.2872 22.2144 91.1953 21.6011C90.1035 20.9878 89.2374 20.1352 88.5971 19.0433C87.9569 17.9515 87.6367 16.7181 87.6367 15.3432Z" fill="black"/>
<path d="M105.954 12.8764C106.291 12.3103 106.74 11.8688 107.299 11.5521C107.858 11.2353 108.522 11.0769 109.291 11.0769V13.4628H108.704C107.801 13.4628 107.117 13.6919 106.652 14.1502C106.187 14.6085 105.954 15.4038 105.954 16.5361V22.3997H103.649V11.2589H105.954V12.8764Z" fill="black"/>
<path d="M121.239 16.5563C121.239 16.9742 121.212 17.3516 121.158 17.6886H112.646C112.714 18.5783 113.044 19.2927 113.637 19.8319C114.23 20.3711 114.958 20.6406 115.821 20.6406C117.061 20.6406 117.937 20.1217 118.449 19.0838H120.936C120.599 20.1082 119.989 20.9473 119.106 21.6011C118.223 22.2548 117.128 22.5817 115.821 22.5817C114.756 22.5817 113.802 22.3424 112.96 21.8639C112.117 21.3854 111.457 20.7114 110.978 19.842C110.5 18.9726 110.26 17.965 110.26 16.8192C110.26 15.6734 110.493 14.6658 110.958 13.7964C111.423 12.927 112.077 12.2564 112.919 11.7846C113.762 11.3128 114.729 11.0769 115.821 11.0769C116.872 11.0769 117.809 11.3061 118.631 11.7644C119.453 12.2227 120.094 12.8663 120.552 13.6953C121.01 14.5243 121.239 15.478 121.239 16.5563ZM118.833 15.8284C118.82 14.9792 118.516 14.2985 117.923 13.7863C117.33 13.2741 116.596 13.018 115.719 13.018C114.924 13.018 114.243 13.2707 113.677 13.7762C113.111 14.2817 112.774 14.9658 112.666 15.8284H118.833Z" fill="black"/>
<path d="M122.35 16.7788C122.35 15.66 122.583 14.6692 123.048 13.8065C123.513 12.9438 124.146 12.2732 124.948 11.7947C125.75 11.3162 126.643 11.0769 127.627 11.0769C128.355 11.0769 129.073 11.2353 129.781 11.5521C130.488 11.8688 131.051 12.2901 131.469 12.8158V7.43744H133.794V22.3997H131.469V20.7215C131.092 21.2607 130.569 21.7055 129.902 22.056C129.235 22.4065 128.47 22.5817 127.607 22.5817C126.637 22.5817 125.75 22.3357 124.948 21.8437C124.146 21.3517 123.513 20.6643 123.048 19.7813C122.583 18.8984 122.35 17.8976 122.35 16.7788ZM131.469 16.8192C131.469 16.0509 131.311 15.3836 130.994 14.8175C130.677 14.2514 130.263 13.82 129.75 13.5235C129.238 13.2269 128.685 13.0786 128.092 13.0786C127.499 13.0786 126.947 13.2235 126.434 13.5133C125.922 13.8032 125.508 14.2278 125.191 14.7872C124.874 15.3466 124.716 16.0104 124.716 16.7788C124.716 17.5471 124.874 18.2211 125.191 18.8007C125.508 19.3803 125.926 19.8218 126.445 20.1251C126.963 20.4284 127.513 20.58 128.092 20.58C128.685 20.58 129.238 20.4317 129.75 20.1352C130.263 19.8386 130.677 19.4039 130.994 18.831C131.311 18.2582 131.469 17.5875 131.469 16.8192Z" fill="black"/>
<path d="M137.615 9.78289C137.197 9.78289 136.847 9.64136 136.564 9.35829C136.281 9.07522 136.139 8.72475 136.139 8.30688C136.139 7.88902 136.281 7.53855 136.564 7.25548C136.847 6.97241 137.197 6.83087 137.615 6.83087C138.02 6.83087 138.363 6.97241 138.646 7.25548C138.929 7.53855 139.071 7.88902 139.071 8.30688C139.071 8.72475 138.929 9.07522 138.646 9.35829C138.363 9.64136 138.02 9.78289 137.615 9.78289ZM138.747 11.2589V22.3998H136.442V11.2589H138.747Z" fill="black"/>
<path d="M144.084 13.1393V19.3062C144.084 19.724 144.182 20.024 144.377 20.2059C144.573 20.3879 144.907 20.4789 145.378 20.4789H146.794V22.3997H144.974C143.936 22.3997 143.141 22.1571 142.588 21.6718C142.035 21.1866 141.759 20.398 141.759 19.3062V13.1393H140.445V11.2589H141.759V8.48883H144.084V11.2589H146.794V13.1393H144.084Z" fill="black"/>
<path d="M68.046 39.748H62.1622L61.1512 42.6191H58.7451L63.7797 28.5464H66.4487L71.4833 42.6191H69.057L68.046 39.748ZM67.399 37.8676L65.1142 31.3367L62.8092 37.8676H67.399Z" fill="black"/>
<path d="M72.5137 37.0386C72.5137 35.8928 72.7462 34.8852 73.2112 34.0158C73.6763 33.1463 74.3199 32.4757 75.1422 32.0039C75.9644 31.5322 76.908 31.2963 77.9729 31.2963C79.3208 31.2963 80.4363 31.6164 81.3192 32.2567C82.2021 32.897 82.7986 33.8102 83.1086 34.9964H80.6216C80.4194 34.4437 80.0959 34.0124 79.6511 33.7024C79.2063 33.3923 78.6469 33.2373 77.9729 33.2373C77.0293 33.2373 76.2778 33.5709 75.7184 34.2382C75.159 34.9054 74.8793 35.8389 74.8793 37.0386C74.8793 38.2382 75.159 39.1751 75.7184 39.849C76.2778 40.523 77.0293 40.86 77.9729 40.86C79.3074 40.86 80.1903 40.2736 80.6216 39.1009H83.1086C82.7851 40.2332 82.1785 41.133 81.2889 41.8002C80.3992 42.4674 79.2939 42.8011 77.9729 42.8011C76.908 42.8011 75.9644 42.5618 75.1422 42.0833C74.3199 41.6048 73.6763 40.9308 73.2112 40.0613C72.7462 39.1919 72.5137 38.1843 72.5137 37.0386Z" fill="black"/>
<path d="M87.7176 33.3586V39.5255C87.7176 39.9434 87.8153 40.2433 88.0108 40.4253C88.2062 40.6073 88.5399 40.6983 89.0116 40.6983H90.427V42.6191H88.6073C87.5693 42.6191 86.774 42.3765 86.2214 41.8912C85.6687 41.4059 85.3924 40.6174 85.3924 39.5255V33.3586H84.0781V31.4782H85.3924V28.7082H87.7176V31.4782H90.427V33.3586H87.7176Z" fill="black"/>
<path d="M93.3373 30.0023C92.9195 30.0023 92.569 29.8607 92.2859 29.5776C92.0029 29.2946 91.8613 28.9441 91.8613 28.5262C91.8613 28.1084 92.0029 27.7579 92.2859 27.4748C92.569 27.1918 92.9195 27.0502 93.3373 27.0502C93.7417 27.0502 94.0855 27.1918 94.3685 27.4748C94.6516 27.7579 94.7931 28.1084 94.7931 28.5262C94.7931 28.9441 94.6516 29.2946 94.3685 29.5776C94.0855 29.8607 93.7417 30.0023 93.3373 30.0023ZM94.4696 31.4783V42.6191H92.1646V31.4783H94.4696Z" fill="black"/>
<path d="M101.95 42.8011C100.899 42.8011 99.9485 42.5618 99.0992 42.0833C98.25 41.6048 97.5828 40.9308 97.0975 40.0613C96.6123 39.1919 96.3696 38.1843 96.3696 37.0386C96.3696 35.9063 96.619 34.902 97.1177 34.0259C97.6165 33.1497 98.2972 32.4757 99.1599 32.0039C100.023 31.5322 100.986 31.2963 102.051 31.2963C103.116 31.2963 104.08 31.5322 104.943 32.0039C105.805 32.4757 106.486 33.1497 106.985 34.0259C107.484 34.902 107.733 35.9063 107.733 37.0386C107.733 38.1708 107.477 39.1751 106.965 40.0512C106.452 40.9274 105.755 41.6048 104.872 42.0833C103.989 42.5618 103.015 42.8011 101.95 42.8011ZM101.95 40.7994C102.543 40.7994 103.099 40.6578 103.618 40.3747C104.137 40.0917 104.558 39.6671 104.882 39.1009C105.205 38.5348 105.367 37.8473 105.367 37.0386C105.367 36.2298 105.212 35.5457 104.902 34.9863C104.592 34.4269 104.181 34.0057 103.669 33.7226C103.157 33.4395 102.604 33.298 102.011 33.298C101.418 33.298 100.868 33.4395 100.363 33.7226C99.8575 34.0057 99.4564 34.4269 99.1599 34.9863C98.8633 35.5457 98.7151 36.2298 98.7151 37.0386C98.7151 38.2382 99.0217 39.165 99.6351 39.8187C100.248 40.4725 101.02 40.7994 101.95 40.7994Z" fill="black"/>
<path d="M115.253 31.2963C116.129 31.2963 116.915 31.4782 117.609 31.8422C118.303 32.2061 118.846 32.7453 119.237 33.4597C119.627 34.1741 119.823 35.0368 119.823 36.0478V42.6191H117.538V36.3915C117.538 35.394 117.289 34.6291 116.79 34.0966C116.291 33.5642 115.611 33.298 114.748 33.298C113.885 33.298 113.201 33.5642 112.696 34.0966C112.19 34.6291 111.937 35.394 111.937 36.3915V42.6191H109.632V31.4782H111.937V32.7521C112.315 32.2938 112.797 31.9365 113.383 31.6804C113.969 31.4243 114.593 31.2963 115.253 31.2963Z" fill="black"/>
</g>
<defs>
<clipPath id="clip0_527_4032">
<rect width="147" height="49.7286" fill="white"/>
</clipPath>
</defs>
</svg>
